name ./resultDataOpenSim/trcMotMarkerGrf/sub09/grf-13-03.mot
datacolumns 19
datarows 10
range 0.50800000 0.54400000
endheader

                time	     ground_force_vx	     ground_force_vy	     ground_force_vz	     ground_force_px	     ground_force_py	     ground_force_pz	   l_ground_force_vx	   l_ground_force_vy	   l_ground_force_vz	   l_ground_force_px	   l_ground_force_py	   l_ground_force_pz	     ground_torque_x	     ground_torque_y	     ground_torque_z	   l_ground_torque_x	   l_ground_torque_y	   l_ground_torque_z	
          0.50800000	         47.14781865	        429.46989292	        -18.15901753	         -0.71948576	          0.00000000	          0.06510221	          0.00000000	          0.00000000	          0.00000000	          0.00000000	          0.00000000	          0.00000000	          0.00000000	          4.96992809	          0.00000000	          0.00000000	          0.00000000	          0.00000000	
          0.51200000	         50.04320825	        441.85763255	        -17.47144728	         -0.71883572	          0.00000000	          0.06479072	          0.00000000	          0.00000000	          0.00000000	          0.00000000	          0.00000000	          0.00000000	          0.00000000	          5.63202551	          0.00000000	          0.00000000	          0.00000000	          0.00000000	
          0.51600000	         52.20333665	        455.40214534	        -17.06442487	         -0.71789527	          0.00000000	          0.06447946	          0.00000000	          0.00000000	          0.00000000	          0.00000000	          0.00000000	          0.00000000	          0.00000000	          6.23312484	          0.00000000	          0.00000000	          0.00000000	          0.00000000	
          0.52000000	         53.77419919	        469.76777348	        -17.15286622	         -0.71664807	          0.00000000	          0.06421977	          0.00000000	          0.00000000	          0.00000000	          0.00000000	          0.00000000	          0.00000000	          0.00000000	          6.73958959	          0.00000000	          0.00000000	          0.00000000	          0.00000000	
          0.52400000	         55.03202589	        484.62817000	        -17.83627260	         -0.71510462	          0.00000000	          0.06404820	          0.00000000	          0.00000000	          0.00000000	          0.00000000	          0.00000000	          0.00000000	          0.00000000	          7.13303118	          0.00000000	          0.00000000	          0.00000000	          0.00000000	
          0.52800000	         56.30022679	        499.74969652	        -19.08479753	         -0.71329825	          0.00000000	          0.06398311	          0.00000000	          0.00000000	          0.00000000	          0.00000000	          0.00000000	          0.00000000	          0.00000000	          7.41166588	          0.00000000	          0.00000000	          0.00000000	          0.00000000	
          0.53200000	         57.84674519	        515.01567553	        -20.75866516	         -0.71128833	          0.00000000	          0.06402203	          0.00000000	          0.00000000	          0.00000000	          0.00000000	          0.00000000	          0.00000000	          0.00000000	          7.58819858	          0.00000000	          0.00000000	          0.00000000	          0.00000000	
          0.53600000	         59.79715158	        530.38438371	        -22.66239820	         -0.70915416	          0.00000000	          0.06414091	          0.00000000	          0.00000000	          0.00000000	          0.00000000	          0.00000000	          0.00000000	          0.00000000	          7.68473153	          0.00000000	          0.00000000	          0.00000000	          0.00000000	
          0.54000000	         62.11896419	        545.77680370	        -24.60444469	         -0.70697431	          0.00000000	          0.06431204	          0.00000000	          0.00000000	          0.00000000	          0.00000000	          0.00000000	          0.00000000	          0.00000000	          7.72586258	          0.00000000	          0.00000000	          0.00000000	          0.00000000	
          0.54400000	         64.66650429	        560.97191145	        -26.42932471	         -0.70473692	          0.00000000	          0.06452970	          0.00000000	          0.00000000	          0.00000000	          0.00000000	          0.00000000	          0.00000000	          0.00000000	          7.73164290	          0.00000000	          0.00000000	          0.00000000	          0.00000000	
